<?xml version="1.0" encoding="UTF-8" standalone="no"?>
<!DOCTYPE svg PUBLIC "-//W3C//DTD SVG 1.1//EN"
 "http://www.w3.org/Graphics/SVG/1.1/DTD/svg11.dtd">
<!-- Generated by graphviz version 2.43.0 (0)
 -->
<!-- Title: structs Pages: 1 -->
<svg width="412pt" height="807pt"
 viewBox="0.00 0.00 412.00 807.00" xmlns="http://www.w3.org/2000/svg" xmlns:xlink="http://www.w3.org/1999/xlink">
<g id="graph0" class="graph" transform="scale(1 1) rotate(0) translate(4 803)">
<title>structs</title>
<polygon fill="white" stroke="transparent" points="-4,4 -4,-803 408,-803 408,4 -4,4"/>
<!-- struct_140144303985648 -->
<g id="node1" class="node">
<title>struct_140144303985648</title>
<polygon fill="gray" stroke="transparent" points="210,-732 210,-795 396,-795 396,-732 210,-732"/>
<polygon fill="none" stroke="black" points="210,-773.5 210,-794.5 396,-794.5 396,-773.5 210,-773.5"/>
<text text-anchor="start" x="213" y="-781.3" font-family="Times,serif" text-decoration="underline" font-size="14.00">ListeSimplementChainee</text>
<polygon fill="none" stroke="black" points="210,-752.5 210,-773.5 274,-773.5 274,-752.5 210,-752.5"/>
<text text-anchor="start" x="227.5" y="-759.3" font-family="Times,serif" font-size="14.00">tete</text>
<polygon fill="none" stroke="black" points="274,-752.5 274,-773.5 338,-773.5 338,-752.5 274,-752.5"/>
<text text-anchor="start" x="284" y="-759.3" font-family="Times,serif" font-size="14.00">queue</text>
<polygon fill="none" stroke="black" points="338,-752.5 338,-773.5 396,-773.5 396,-752.5 338,-752.5"/>
<text text-anchor="start" x="348.5" y="-759.3" font-family="Times,serif" font-size="14.00">taille</text>
<polygon fill="none" stroke="black" points="210,-731.5 210,-752.5 274,-752.5 274,-731.5 210,-731.5"/>
<text text-anchor="start" x="235.5" y="-738.3" font-family="Times,serif" font-size="14.00">●</text>
<polygon fill="none" stroke="black" points="274,-731.5 274,-752.5 338,-752.5 338,-731.5 274,-731.5"/>
<text text-anchor="start" x="299.5" y="-738.3" font-family="Times,serif" font-size="14.00">●</text>
<polygon fill="none" stroke="black" points="338,-731.5 338,-752.5 396,-752.5 396,-731.5 338,-731.5"/>
<text text-anchor="start" x="360.5" y="-738.3" font-family="Times,serif" font-size="14.00">●</text>
</g>
<!-- struct_140144303993328 -->
<g id="node2" class="node">
<title>struct_140144303993328</title>
<polygon fill="gray" stroke="transparent" points="53.5,-625 53.5,-688 164.5,-688 164.5,-625 53.5,-625"/>
<polygon fill="none" stroke="black" points="54,-666.5 54,-687.5 165,-687.5 165,-666.5 54,-666.5"/>
<text text-anchor="start" x="84.5" y="-674.3" font-family="Times,serif" text-decoration="underline" font-size="14.00">Cellule</text>
<polygon fill="none" stroke="black" points="54,-645.5 54,-666.5 106,-666.5 106,-645.5 54,-645.5"/>
<text text-anchor="start" x="57" y="-652.3" font-family="Times,serif" font-size="14.00">valeur</text>
<polygon fill="none" stroke="black" points="106,-645.5 106,-666.5 165,-666.5 165,-645.5 106,-645.5"/>
<text text-anchor="start" x="109" y="-652.3" font-family="Times,serif" font-size="14.00">suivant</text>
<polygon fill="none" stroke="black" points="54,-624.5 54,-645.5 106,-645.5 106,-624.5 54,-624.5"/>
<text text-anchor="start" x="73.5" y="-631.3" font-family="Times,serif" font-size="14.00">●</text>
<polygon fill="none" stroke="black" points="106,-624.5 106,-645.5 165,-645.5 165,-624.5 106,-624.5"/>
<text text-anchor="start" x="129" y="-631.3" font-family="Times,serif" font-size="14.00">●</text>
</g>
<!-- struct_140144303985648&#45;&gt;struct_140144303993328 -->
<g id="edge13" class="edge">
<title>struct_140144303985648:port_child0&#45;&gt;struct_140144303993328</title>
<path fill="none" stroke="black" d="M209,-741.5C180.25,-741.5 155.45,-720.89 137.73,-700.09"/>
<polygon fill="black" stroke="black" points="140.32,-697.72 131.3,-692.15 134.88,-702.12 140.32,-697.72"/>
</g>
<!-- struct_140144303986848 -->
<g id="node12" class="node">
<title>struct_140144303986848</title>
<polygon fill="gray" stroke="transparent" points="253.5,-90 253.5,-153 364.5,-153 364.5,-90 253.5,-90"/>
<polygon fill="none" stroke="black" points="254,-131.5 254,-152.5 365,-152.5 365,-131.5 254,-131.5"/>
<text text-anchor="start" x="284.5" y="-139.3" font-family="Times,serif" text-decoration="underline" font-size="14.00">Cellule</text>
<polygon fill="none" stroke="black" points="254,-110.5 254,-131.5 306,-131.5 306,-110.5 254,-110.5"/>
<text text-anchor="start" x="257" y="-117.3" font-family="Times,serif" font-size="14.00">valeur</text>
<polygon fill="none" stroke="black" points="306,-110.5 306,-131.5 365,-131.5 365,-110.5 306,-110.5"/>
<text text-anchor="start" x="309" y="-117.3" font-family="Times,serif" font-size="14.00">suivant</text>
<polygon fill="none" stroke="black" points="254,-89.5 254,-110.5 306,-110.5 306,-89.5 254,-89.5"/>
<text text-anchor="start" x="273.5" y="-96.3" font-family="Times,serif" font-size="14.00">●</text>
<polygon fill="none" stroke="black" points="306,-89.5 306,-110.5 365,-110.5 365,-89.5 306,-89.5"/>
<text text-anchor="start" x="329" y="-96.3" font-family="Times,serif" font-size="14.00">●</text>
</g>
<!-- struct_140144303985648&#45;&gt;struct_140144303986848 -->
<g id="edge14" class="edge">
<title>struct_140144303985648:port_child1&#45;&gt;struct_140144303986848</title>
<path fill="none" stroke="black" d="M306,-730.5C306,-650.49 309,-630.51 309,-550.5 309,-550.5 309,-550.5 309,-334.5 309,-276.7 309,-210.03 309,-167.13"/>
<polygon fill="black" stroke="black" points="312.5,-167.02 309,-157.02 305.5,-167.02 312.5,-167.02"/>
</g>
<!-- struct_140144306979280 -->
<g id="node15" class="node">
<title>struct_140144306979280</title>
<polygon fill="lightgray" stroke="transparent" points="354,-635.5 354,-677.5 380,-677.5 380,-635.5 354,-635.5"/>
<polygon fill="none" stroke="black" points="354,-656.5 354,-677.5 380,-677.5 380,-656.5 354,-656.5"/>
<text text-anchor="start" x="357" y="-664.3" font-family="Times,serif" text-decoration="underline" font-size="14.00">int</text>
<polygon fill="none" stroke="black" points="354,-635.5 354,-656.5 380,-656.5 380,-635.5 354,-635.5"/>
<text text-anchor="start" x="362" y="-642.3" font-family="Times,serif" font-size="14.00">8</text>
</g>
<!-- struct_140144303985648&#45;&gt;struct_140144306979280 -->
<g id="edge15" class="edge">
<title>struct_140144303985648:port_child2&#45;&gt;struct_140144306979280</title>
<path fill="none" stroke="black" d="M367,-730.5C367,-717.86 367,-703.98 367,-691.75"/>
<polygon fill="black" stroke="black" points="370.5,-691.5 367,-681.5 363.5,-691.5 370.5,-691.5"/>
</g>
<!-- struct_140144306979056 -->
<g id="node3" class="node">
<title>struct_140144306979056</title>
<polygon fill="lightgray" stroke="transparent" points="14,-528.5 14,-570.5 40,-570.5 40,-528.5 14,-528.5"/>
<polygon fill="none" stroke="black" points="14,-549.5 14,-570.5 40,-570.5 40,-549.5 14,-549.5"/>
<text text-anchor="start" x="17" y="-557.3" font-family="Times,serif" text-decoration="underline" font-size="14.00">int</text>
<polygon fill="none" stroke="black" points="14,-528.5 14,-549.5 40,-549.5 40,-528.5 14,-528.5"/>
<text text-anchor="start" x="22" y="-535.3" font-family="Times,serif" font-size="14.00">1</text>
</g>
<!-- struct_140144303993328&#45;&gt;struct_140144306979056 -->
<g id="edge1" class="edge">
<title>struct_140144303993328:port_child0&#45;&gt;struct_140144306979056</title>
<path fill="none" stroke="black" d="M53,-634.5C31.06,-634.5 25.56,-608.02 24.96,-584.8"/>
<polygon fill="black" stroke="black" points="28.46,-584.8 24.97,-574.8 21.46,-584.79 28.46,-584.8"/>
</g>
<!-- struct_140144303993280 -->
<g id="node4" class="node">
<title>struct_140144303993280</title>
<polygon fill="gray" stroke="transparent" points="80.5,-518 80.5,-581 191.5,-581 191.5,-518 80.5,-518"/>
<polygon fill="none" stroke="black" points="81,-559.5 81,-580.5 192,-580.5 192,-559.5 81,-559.5"/>
<text text-anchor="start" x="111.5" y="-567.3" font-family="Times,serif" text-decoration="underline" font-size="14.00">Cellule</text>
<polygon fill="none" stroke="black" points="81,-538.5 81,-559.5 133,-559.5 133,-538.5 81,-538.5"/>
<text text-anchor="start" x="84" y="-545.3" font-family="Times,serif" font-size="14.00">valeur</text>
<polygon fill="none" stroke="black" points="133,-538.5 133,-559.5 192,-559.5 192,-538.5 133,-538.5"/>
<text text-anchor="start" x="136" y="-545.3" font-family="Times,serif" font-size="14.00">suivant</text>
<polygon fill="none" stroke="black" points="81,-517.5 81,-538.5 133,-538.5 133,-517.5 81,-517.5"/>
<text text-anchor="start" x="100.5" y="-524.3" font-family="Times,serif" font-size="14.00">●</text>
<polygon fill="none" stroke="black" points="133,-517.5 133,-538.5 192,-538.5 192,-517.5 133,-517.5"/>
<text text-anchor="start" x="156" y="-524.3" font-family="Times,serif" font-size="14.00">●</text>
</g>
<!-- struct_140144303993328&#45;&gt;struct_140144303993280 -->
<g id="edge12" class="edge">
<title>struct_140144303993328:port_child1&#45;&gt;struct_140144303993280</title>
<path fill="none" stroke="black" d="M136,-623.5C136,-614.38 136,-604.63 136,-595.31"/>
<polygon fill="black" stroke="black" points="139.5,-595.03 136,-585.03 132.5,-595.03 139.5,-595.03"/>
</g>
<!-- struct_140144306979088 -->
<g id="node5" class="node">
<title>struct_140144306979088</title>
<polygon fill="lightgray" stroke="transparent" points="41,-421.5 41,-463.5 67,-463.5 67,-421.5 41,-421.5"/>
<polygon fill="none" stroke="black" points="41,-442.5 41,-463.5 67,-463.5 67,-442.5 41,-442.5"/>
<text text-anchor="start" x="44" y="-450.3" font-family="Times,serif" text-decoration="underline" font-size="14.00">int</text>
<polygon fill="none" stroke="black" points="41,-421.5 41,-442.5 67,-442.5 67,-421.5 41,-421.5"/>
<text text-anchor="start" x="49" y="-428.3" font-family="Times,serif" font-size="14.00">2</text>
</g>
<!-- struct_140144303993280&#45;&gt;struct_140144306979088 -->
<g id="edge2" class="edge">
<title>struct_140144303993280:port_child0&#45;&gt;struct_140144306979088</title>
<path fill="none" stroke="black" d="M80,-527.5C69.03,-527.5 62.18,-501.02 58.29,-477.8"/>
<polygon fill="black" stroke="black" points="61.73,-477.15 56.75,-467.8 54.81,-478.21 61.73,-477.15"/>
</g>
<!-- struct_140144303989680 -->
<g id="node6" class="node">
<title>struct_140144303989680</title>
<polygon fill="gray" stroke="transparent" points="107.5,-411 107.5,-474 218.5,-474 218.5,-411 107.5,-411"/>
<polygon fill="none" stroke="black" points="108,-452.5 108,-473.5 219,-473.5 219,-452.5 108,-452.5"/>
<text text-anchor="start" x="138.5" y="-460.3" font-family="Times,serif" text-decoration="underline" font-size="14.00">Cellule</text>
<polygon fill="none" stroke="black" points="108,-431.5 108,-452.5 160,-452.5 160,-431.5 108,-431.5"/>
<text text-anchor="start" x="111" y="-438.3" font-family="Times,serif" font-size="14.00">valeur</text>
<polygon fill="none" stroke="black" points="160,-431.5 160,-452.5 219,-452.5 219,-431.5 160,-431.5"/>
<text text-anchor="start" x="163" y="-438.3" font-family="Times,serif" font-size="14.00">suivant</text>
<polygon fill="none" stroke="black" points="108,-410.5 108,-431.5 160,-431.5 160,-410.5 108,-410.5"/>
<text text-anchor="start" x="127.5" y="-417.3" font-family="Times,serif" font-size="14.00">●</text>
<polygon fill="none" stroke="black" points="160,-410.5 160,-431.5 219,-431.5 219,-410.5 160,-410.5"/>
<text text-anchor="start" x="183" y="-417.3" font-family="Times,serif" font-size="14.00">●</text>
</g>
<!-- struct_140144303993280&#45;&gt;struct_140144303989680 -->
<g id="edge11" class="edge">
<title>struct_140144303993280:port_child1&#45;&gt;struct_140144303989680</title>
<path fill="none" stroke="black" d="M163,-516.5C163,-507.38 163,-497.63 163,-488.31"/>
<polygon fill="black" stroke="black" points="166.5,-488.03 163,-478.03 159.5,-488.03 166.5,-488.03"/>
</g>
<!-- struct_140144306979120 -->
<g id="node7" class="node">
<title>struct_140144306979120</title>
<polygon fill="lightgray" stroke="transparent" points="68,-314.5 68,-356.5 94,-356.5 94,-314.5 68,-314.5"/>
<polygon fill="none" stroke="black" points="68,-335.5 68,-356.5 94,-356.5 94,-335.5 68,-335.5"/>
<text text-anchor="start" x="71" y="-343.3" font-family="Times,serif" text-decoration="underline" font-size="14.00">int</text>
<polygon fill="none" stroke="black" points="68,-314.5 68,-335.5 94,-335.5 94,-314.5 68,-314.5"/>
<text text-anchor="start" x="76" y="-321.3" font-family="Times,serif" font-size="14.00">3</text>
</g>
<!-- struct_140144303989680&#45;&gt;struct_140144306979120 -->
<g id="edge3" class="edge">
<title>struct_140144303989680:port_child0&#45;&gt;struct_140144306979120</title>
<path fill="none" stroke="black" d="M107,-420.5C96.03,-420.5 89.18,-394.02 85.29,-370.8"/>
<polygon fill="black" stroke="black" points="88.73,-370.15 83.75,-360.8 81.81,-371.21 88.73,-370.15"/>
</g>
<!-- struct_140144303985840 -->
<g id="node8" class="node">
<title>struct_140144303985840</title>
<polygon fill="gray" stroke="transparent" points="134.5,-304 134.5,-367 245.5,-367 245.5,-304 134.5,-304"/>
<polygon fill="none" stroke="black" points="135,-345.5 135,-366.5 246,-366.5 246,-345.5 135,-345.5"/>
<text text-anchor="start" x="165.5" y="-353.3" font-family="Times,serif" text-decoration="underline" font-size="14.00">Cellule</text>
<polygon fill="none" stroke="black" points="135,-324.5 135,-345.5 187,-345.5 187,-324.5 135,-324.5"/>
<text text-anchor="start" x="138" y="-331.3" font-family="Times,serif" font-size="14.00">valeur</text>
<polygon fill="none" stroke="black" points="187,-324.5 187,-345.5 246,-345.5 246,-324.5 187,-324.5"/>
<text text-anchor="start" x="190" y="-331.3" font-family="Times,serif" font-size="14.00">suivant</text>
<polygon fill="none" stroke="black" points="135,-303.5 135,-324.5 187,-324.5 187,-303.5 135,-303.5"/>
<text text-anchor="start" x="154.5" y="-310.3" font-family="Times,serif" font-size="14.00">●</text>
<polygon fill="none" stroke="black" points="187,-303.5 187,-324.5 246,-324.5 246,-303.5 187,-303.5"/>
<text text-anchor="start" x="210" y="-310.3" font-family="Times,serif" font-size="14.00">●</text>
</g>
<!-- struct_140144303989680&#45;&gt;struct_140144303985840 -->
<g id="edge10" class="edge">
<title>struct_140144303989680:port_child1&#45;&gt;struct_140144303985840</title>
<path fill="none" stroke="black" d="M190,-409.5C190,-400.38 190,-390.63 190,-381.31"/>
<polygon fill="black" stroke="black" points="193.5,-381.03 190,-371.03 186.5,-381.03 193.5,-381.03"/>
</g>
<!-- struct_140144306979152 -->
<g id="node9" class="node">
<title>struct_140144306979152</title>
<polygon fill="lightgray" stroke="transparent" points="95,-207.5 95,-249.5 121,-249.5 121,-207.5 95,-207.5"/>
<polygon fill="none" stroke="black" points="95,-228.5 95,-249.5 121,-249.5 121,-228.5 95,-228.5"/>
<text text-anchor="start" x="98" y="-236.3" font-family="Times,serif" text-decoration="underline" font-size="14.00">int</text>
<polygon fill="none" stroke="black" points="95,-207.5 95,-228.5 121,-228.5 121,-207.5 95,-207.5"/>
<text text-anchor="start" x="103" y="-214.3" font-family="Times,serif" font-size="14.00">4</text>
</g>
<!-- struct_140144303985840&#45;&gt;struct_140144306979152 -->
<g id="edge4" class="edge">
<title>struct_140144303985840:port_child0&#45;&gt;struct_140144306979152</title>
<path fill="none" stroke="black" d="M134,-313.5C123.03,-313.5 116.18,-287.02 112.29,-263.8"/>
<polygon fill="black" stroke="black" points="115.73,-263.15 110.75,-253.8 108.81,-264.21 115.73,-263.15"/>
</g>
<!-- struct_140144303987712 -->
<g id="node10" class="node">
<title>struct_140144303987712</title>
<polygon fill="gray" stroke="transparent" points="161.5,-197 161.5,-260 272.5,-260 272.5,-197 161.5,-197"/>
<polygon fill="none" stroke="black" points="162,-238.5 162,-259.5 273,-259.5 273,-238.5 162,-238.5"/>
<text text-anchor="start" x="192.5" y="-246.3" font-family="Times,serif" text-decoration="underline" font-size="14.00">Cellule</text>
<polygon fill="none" stroke="black" points="162,-217.5 162,-238.5 214,-238.5 214,-217.5 162,-217.5"/>
<text text-anchor="start" x="165" y="-224.3" font-family="Times,serif" font-size="14.00">valeur</text>
<polygon fill="none" stroke="black" points="214,-217.5 214,-238.5 273,-238.5 273,-217.5 214,-217.5"/>
<text text-anchor="start" x="217" y="-224.3" font-family="Times,serif" font-size="14.00">suivant</text>
<polygon fill="none" stroke="black" points="162,-196.5 162,-217.5 214,-217.5 214,-196.5 162,-196.5"/>
<text text-anchor="start" x="181.5" y="-203.3" font-family="Times,serif" font-size="14.00">●</text>
<polygon fill="none" stroke="black" points="214,-196.5 214,-217.5 273,-217.5 273,-196.5 214,-196.5"/>
<text text-anchor="start" x="237" y="-203.3" font-family="Times,serif" font-size="14.00">●</text>
</g>
<!-- struct_140144303985840&#45;&gt;struct_140144303987712 -->
<g id="edge9" class="edge">
<title>struct_140144303985840:port_child1&#45;&gt;struct_140144303987712</title>
<path fill="none" stroke="black" d="M217,-302.5C217,-293.38 217,-283.63 217,-274.31"/>
<polygon fill="black" stroke="black" points="220.5,-274.03 217,-264.03 213.5,-274.03 220.5,-274.03"/>
</g>
<!-- struct_140144304361072 -->
<g id="node11" class="node">
<title>struct_140144304361072</title>
<polygon fill="lightgray" stroke="transparent" points="142.5,-100.5 142.5,-142.5 219.5,-142.5 219.5,-100.5 142.5,-100.5"/>
<polygon fill="none" stroke="black" points="143,-121.5 143,-142.5 220,-142.5 220,-121.5 143,-121.5"/>
<text text-anchor="start" x="171" y="-129.3" font-family="Times,serif" text-decoration="underline" font-size="14.00">str</text>
<polygon fill="none" stroke="black" points="143,-100.5 143,-121.5 220,-121.5 220,-100.5 143,-100.5"/>
<text text-anchor="start" x="146" y="-107.3" font-family="Times,serif" font-size="14.00">&quot;queue 1&quot;</text>
</g>
<!-- struct_140144303987712&#45;&gt;struct_140144304361072 -->
<g id="edge5" class="edge">
<title>struct_140144303987712:port_child0&#45;&gt;struct_140144304361072</title>
<path fill="none" stroke="black" d="M188,-195.5C188,-182.9 186.95,-169.12 185.67,-156.97"/>
<polygon fill="black" stroke="black" points="189.12,-156.31 184.5,-146.78 182.16,-157.11 189.12,-156.31"/>
</g>
<!-- struct_140144303987712&#45;&gt;struct_140144303986848 -->
<g id="edge8" class="edge">
<title>struct_140144303987712:port_child1&#45;&gt;struct_140144303986848</title>
<path fill="none" stroke="black" d="M274,-206.5C283.71,-206.5 292.16,-187.14 298.33,-167.01"/>
<polygon fill="black" stroke="black" points="301.76,-167.73 301.16,-157.15 295.04,-165.79 301.76,-167.73"/>
</g>
<!-- struct_140144304361136 -->
<g id="node13" class="node">
<title>struct_140144304361136</title>
<polygon fill="lightgray" stroke="transparent" points="221.5,-4 221.5,-46 298.5,-46 298.5,-4 221.5,-4"/>
<polygon fill="none" stroke="black" points="222,-25 222,-46 299,-46 299,-25 222,-25"/>
<text text-anchor="start" x="250" y="-32.8" font-family="Times,serif" text-decoration="underline" font-size="14.00">str</text>
<polygon fill="none" stroke="black" points="222,-4 222,-25 299,-25 299,-4 222,-4"/>
<text text-anchor="start" x="225" y="-10.8" font-family="Times,serif" font-size="14.00">&quot;queue 2&quot;</text>
</g>
<!-- struct_140144303986848&#45;&gt;struct_140144304361136 -->
<g id="edge6" class="edge">
<title>struct_140144303986848:port_child0&#45;&gt;struct_140144304361136</title>
<path fill="none" stroke="black" d="M280,-88.5C280,-78.88 277.82,-68.8 274.91,-59.62"/>
<polygon fill="black" stroke="black" points="278.16,-58.33 271.52,-50.07 271.56,-60.67 278.16,-58.33"/>
</g>
<!-- struct_94837025731552 -->
<g id="node14" class="node">
<title>struct_94837025731552</title>
<polygon fill="deeppink" stroke="transparent" points="333,-14.5 333,-35.5 377,-35.5 377,-14.5 333,-14.5"/>
<polygon fill="none" stroke="black" points="333,-14 333,-35 377,-35 377,-14 333,-14"/>
<text text-anchor="start" x="336" y="-20.8" font-family="Times,serif" font-size="14.00">None</text>
</g>
<!-- struct_140144303986848&#45;&gt;struct_94837025731552 -->
<g id="edge7" class="edge">
<title>struct_140144303986848:port_child1&#45;&gt;struct_94837025731552</title>
<path fill="none" stroke="black" d="M336,-88.5C336,-76.34 339.33,-63.41 343.2,-52.48"/>
<polygon fill="black" stroke="black" points="346.49,-53.68 346.83,-43.09 339.96,-51.16 346.49,-53.68"/>
</g>
</g>
</svg>
