<svg xmlns='http://www.w3.org/2000/svg' version='1.1' width='300' height='300'>
<polygon points='0, 0 0, 300 300, 300 300, 0' fill='grey' />
<line x1="0" y1="260" x2="0" y2="300" style="stroke: black;"/>
<line x1="0" y1="300" x2="40" y2="300" style="stroke: black;"/>
<line x1="40" y1="300" x2="40" y2="260" style="stroke: black;"/>
<line x1="40" y1="260" x2="0" y2="260" style="stroke: black;"/>
<text x='0' y='300' fill='red' > 1 </text>
<line x1="40" y1="260" x2="40" y2="300" style="stroke: black;"/>
<line x1="40" y1="300" x2="80" y2="300" style="stroke: black;"/>
<line x1="80" y1="300" x2="80" y2="260" style="stroke: black;"/>
<line x1="80" y1="260" x2="40" y2="260" style="stroke: black;"/>
<text x='40' y='300' fill='red' > 2 </text>
<line x1="80" y1="260" x2="80" y2="300" style="stroke: black;"/>
<line x1="80" y1="300" x2="120" y2="300" style="stroke: black;"/>
<line x1="120" y1="300" x2="120" y2="260" style="stroke: black;"/>
<line x1="120" y1="260" x2="80" y2="260" style="stroke: black;"/>
<text x='80' y='300' fill='red' > 3 </text>
<line x1="120" y1="260" x2="120" y2="300" style="stroke: black;"/>
<line x1="120" y1="300" x2="160" y2="300" style="stroke: black;"/>
<line x1="160" y1="300" x2="160" y2="260" style="stroke: black;"/>
<line x1="160" y1="260" x2="120" y2="260" style="stroke: black;"/>
<text x='120' y='300' fill='red' > 4 </text>
<line x1="160" y1="260" x2="160" y2="300" style="stroke: black;"/>
<line x1="160" y1="300" x2="200" y2="300" style="stroke: black;"/>
<line x1="200" y1="300" x2="200" y2="260" style="stroke: black;"/>
<line x1="200" y1="260" x2="160" y2="260" style="stroke: black;"/>
<text x='160' y='300' fill='red' > 5 </text>
<line x1="200" y1="260" x2="200" y2="300" style="stroke: black;"/>
<line x1="200" y1="300" x2="240" y2="300" style="stroke: black;"/>
<line x1="240" y1="300" x2="240" y2="260" style="stroke: black;"/>
<line x1="240" y1="260" x2="200" y2="260" style="stroke: black;"/>
<text x='200' y='300' fill='red' > 6 </text>
<line x1="240" y1="260" x2="240" y2="300" style="stroke: black;"/>
<line x1="240" y1="300" x2="280" y2="300" style="stroke: black;"/>
<line x1="280" y1="300" x2="280" y2="260" style="stroke: black;"/>
<line x1="280" y1="260" x2="240" y2="260" style="stroke: black;"/>
<text x='240' y='300' fill='red' > 7 </text>
<line x1="240" y1="220" x2="240" y2="260" style="stroke: black;"/>
<line x1="240" y1="260" x2="280" y2="260" style="stroke: black;"/>
<line x1="280" y1="260" x2="280" y2="220" style="stroke: black;"/>
<line x1="280" y1="220" x2="240" y2="220" style="stroke: black;"/>
<text x='240' y='260' fill='red' > 8 </text>
<line x1="240" y1="180" x2="240" y2="220" style="stroke: black;"/>
<line x1="240" y1="220" x2="280" y2="220" style="stroke: black;"/>
<line x1="280" y1="220" x2="280" y2="180" style="stroke: black;"/>
<line x1="280" y1="180" x2="240" y2="180" style="stroke: black;"/>
<line x1="240" y1="180" x2="240" y2="220" style="stroke: black;"/>
<line x1="240" y1="220" x2="280" y2="220" style="stroke: black;"/>
<line x1="280" y1="220" x2="280" y2="180" style="stroke: black;"/>
<line x1="280" y1="180" x2="240" y2="180" style="stroke: black;"/>
<text x='240' y='220' fill='red' > 9 </text>
<line x1="200" y1="180" x2="200" y2="220" style="stroke: black;"/>
<line x1="200" y1="220" x2="240" y2="220" style="stroke: black;"/>
<line x1="240" y1="220" x2="240" y2="180" style="stroke: black;"/>
<line x1="240" y1="180" x2="200" y2="180" style="stroke: black;"/>
<text x='200' y='220' fill='red' > 10 </text>
<line x1="160" y1="180" x2="160" y2="220" style="stroke: black;"/>
<line x1="160" y1="220" x2="200" y2="220" style="stroke: black;"/>
<line x1="200" y1="220" x2="200" y2="180" style="stroke: black;"/>
<line x1="200" y1="180" x2="160" y2="180" style="stroke: black;"/>
<text x='160' y='220' fill='red' > 11 </text>
<line x1="120" y1="180" x2="120" y2="220" style="stroke: black;"/>
<line x1="120" y1="220" x2="160" y2="220" style="stroke: black;"/>
<line x1="160" y1="220" x2="160" y2="180" style="stroke: black;"/>
<line x1="160" y1="180" x2="120" y2="180" style="stroke: black;"/>
<text x='120' y='220' fill='red' > 12 </text>
<line x1="80" y1="180" x2="80" y2="220" style="stroke: black;"/>
<line x1="80" y1="220" x2="120" y2="220" style="stroke: black;"/>
<line x1="120" y1="220" x2="120" y2="180" style="stroke: black;"/>
<line x1="120" y1="180" x2="80" y2="180" style="stroke: black;"/>
<text x='80' y='220' fill='red' > 13 </text>
<line x1="40" y1="180" x2="40" y2="220" style="stroke: black;"/>
<line x1="40" y1="220" x2="80" y2="220" style="stroke: black;"/>
<line x1="80" y1="220" x2="80" y2="180" style="stroke: black;"/>
<line x1="80" y1="180" x2="40" y2="180" style="stroke: black;"/>
<text x='40' y='220' fill='red' > 14 </text>
<line x1="0" y1="180" x2="0" y2="220" style="stroke: black;"/>
<line x1="0" y1="220" x2="40" y2="220" style="stroke: black;"/>
<line x1="40" y1="220" x2="40" y2="180" style="stroke: black;"/>
<line x1="40" y1="180" x2="0" y2="180" style="stroke: black;"/>
<text x='0' y='220' fill='red' > 15 </text>
<line x1="0" y1="140" x2="0" y2="180" style="stroke: black;"/>
<line x1="0" y1="180" x2="40" y2="180" style="stroke: black;"/>
<line x1="40" y1="180" x2="40" y2="140" style="stroke: black;"/>
<line x1="40" y1="140" x2="0" y2="140" style="stroke: black;"/>
<text x='0' y='180' fill='red' > 16 </text>
<line x1="0" y1="100" x2="0" y2="140" style="stroke: black;"/>
<line x1="0" y1="140" x2="40" y2="140" style="stroke: black;"/>
<line x1="40" y1="140" x2="40" y2="100" style="stroke: black;"/>
<line x1="40" y1="100" x2="0" y2="100" style="stroke: black;"/>
<line x1="0" y1="100" x2="0" y2="140" style="stroke: black;"/>
<line x1="0" y1="140" x2="40" y2="140" style="stroke: black;"/>
<line x1="40" y1="140" x2="40" y2="100" style="stroke: black;"/>
<line x1="40" y1="100" x2="0" y2="100" style="stroke: black;"/>
<text x='0' y='140' fill='red' > 17 </text>
<line x1="40" y1="100" x2="40" y2="140" style="stroke: black;"/>
<line x1="40" y1="140" x2="80" y2="140" style="stroke: black;"/>
<line x1="80" y1="140" x2="80" y2="100" style="stroke: black;"/>
<line x1="80" y1="100" x2="40" y2="100" style="stroke: black;"/>
<text x='40' y='140' fill='red' > 18 </text>
<line x1="80" y1="100" x2="80" y2="140" style="stroke: black;"/>
<line x1="80" y1="140" x2="120" y2="140" style="stroke: black;"/>
<line x1="120" y1="140" x2="120" y2="100" style="stroke: black;"/>
<line x1="120" y1="100" x2="80" y2="100" style="stroke: black;"/>
<text x='80' y='140' fill='red' > 19 </text>
<line x1="120" y1="100" x2="120" y2="140" style="stroke: black;"/>
<line x1="120" y1="140" x2="160" y2="140" style="stroke: black;"/>
<line x1="160" y1="140" x2="160" y2="100" style="stroke: black;"/>
<line x1="160" y1="100" x2="120" y2="100" style="stroke: black;"/>
<text x='120' y='140' fill='red' > 20 </text>
<line x1="160" y1="100" x2="160" y2="140" style="stroke: black;"/>
<line x1="160" y1="140" x2="200" y2="140" style="stroke: black;"/>
<line x1="200" y1="140" x2="200" y2="100" style="stroke: black;"/>
<line x1="200" y1="100" x2="160" y2="100" style="stroke: black;"/>
<text x='160' y='140' fill='red' > 21 </text>
<line x1="200" y1="100" x2="200" y2="140" style="stroke: black;"/>
<line x1="200" y1="140" x2="240" y2="140" style="stroke: black;"/>
<line x1="240" y1="140" x2="240" y2="100" style="stroke: black;"/>
<line x1="240" y1="100" x2="200" y2="100" style="stroke: black;"/>
<text x='200' y='140' fill='red' > 22 </text>
<line x1="240" y1="100" x2="240" y2="140" style="stroke: black;"/>
<line x1="240" y1="140" x2="280" y2="140" style="stroke: black;"/>
<line x1="280" y1="140" x2="280" y2="100" style="stroke: black;"/>
<line x1="280" y1="100" x2="240" y2="100" style="stroke: black;"/>
<text x='240' y='140' fill='red' > 23 </text>
<line x1="240" y1="60" x2="240" y2="100" style="stroke: black;"/>
<line x1="240" y1="100" x2="280" y2="100" style="stroke: black;"/>
<line x1="280" y1="100" x2="280" y2="60" style="stroke: black;"/>
<line x1="280" y1="60" x2="240" y2="60" style="stroke: black;"/>
<text x='240' y='100' fill='red' > 24 </text>
<line x1="240" y1="20" x2="240" y2="60" style="stroke: black;"/>
<line x1="240" y1="60" x2="280" y2="60" style="stroke: black;"/>
<line x1="280" y1="60" x2="280" y2="20" style="stroke: black;"/>
<line x1="280" y1="20" x2="240" y2="20" style="stroke: black;"/>
<line x1="240" y1="20" x2="240" y2="60" style="stroke: black;"/>
<line x1="240" y1="60" x2="280" y2="60" style="stroke: black;"/>
<line x1="280" y1="60" x2="280" y2="20" style="stroke: black;"/>
<line x1="280" y1="20" x2="240" y2="20" style="stroke: black;"/>
<text x='240' y='60' fill='red' > 25 </text>
<line x1="200" y1="20" x2="200" y2="60" style="stroke: black;"/>
<line x1="200" y1="60" x2="240" y2="60" style="stroke: black;"/>
<line x1="240" y1="60" x2="240" y2="20" style="stroke: black;"/>
<line x1="240" y1="20" x2="200" y2="20" style="stroke: black;"/>
<text x='200' y='60' fill='red' > 26 </text>
<line x1="160" y1="20" x2="160" y2="60" style="stroke: black;"/>
<line x1="160" y1="60" x2="200" y2="60" style="stroke: black;"/>
<line x1="200" y1="60" x2="200" y2="20" style="stroke: black;"/>
<line x1="200" y1="20" x2="160" y2="20" style="stroke: black;"/>
<text x='160' y='60' fill='red' > 27 </text>
<line x1="120" y1="20" x2="120" y2="60" style="stroke: black;"/>
<line x1="120" y1="60" x2="160" y2="60" style="stroke: black;"/>
<line x1="160" y1="60" x2="160" y2="20" style="stroke: black;"/>
<line x1="160" y1="20" x2="120" y2="20" style="stroke: black;"/>
<text x='120' y='60' fill='red' > 28 </text>
<line x1="80" y1="20" x2="80" y2="60" style="stroke: black;"/>
<line x1="80" y1="60" x2="120" y2="60" style="stroke: black;"/>
<line x1="120" y1="60" x2="120" y2="20" style="stroke: black;"/>
<line x1="120" y1="20" x2="80" y2="20" style="stroke: black;"/>
<text x='80' y='60' fill='red' > 29 </text>
<line x1="40" y1="20" x2="40" y2="60" style="stroke: black;"/>
<line x1="40" y1="60" x2="80" y2="60" style="stroke: black;"/>
<line x1="80" y1="60" x2="80" y2="20" style="stroke: black;"/>
<line x1="80" y1="20" x2="40" y2="20" style="stroke: black;"/>
<text x='40' y='60' fill='red' > 30 </text>
<line x1="0" y1="20" x2="0" y2="60" style="stroke: black;"/>
<line x1="0" y1="60" x2="40" y2="60" style="stroke: black;"/>
<line x1="40" y1="60" x2="40" y2="20" style="stroke: black;"/>
<line x1="40" y1="20" x2="0" y2="20" style="stroke: black;"/>
<text x='0' y='60' fill='red' > 31 </text>
</svg>
